<svg xmlns="http://www.w3.org/2000/svg" width="16" height="17" fill="none"><g clip-path="url(#a)"><path fill="url(#b)" d="M11.468 2.446a.668.668 0 0 1 .533.653v2h2c.367 0 .667.3.667.667v6.666a2 2 0 0 1-1.796 1.99l-.204.01H3.334a2 2 0 0 1-2-2V3.1c0-.368.298-.667.666-.667h9.334l.134.014Zm.533 9.986c0 .322.228.591.532.654l.135.013a.668.668 0 0 0 .666-.667v-6H12v6ZM6 7.765A.667.667 0 0 0 6 9.1h2.666l.134-.013a.668.668 0 0 0 0-1.307l-.134-.014H6ZM4.666 5.1a.667.667 0 0 0 0 1.334h4l.135-.013a.668.668 0 0 0 0-1.307L8.666 5.1h-4Z"/></g><defs><linearGradient id="b" x1=".221" x2="7.237" y1="3.214" y2="16.663" gradientUnits="userSpaceOnUse"><stop stop-color="#fff"/><stop offset=".351" stop-color="#9573DE"/><stop offset="1" stop-color="#fff"/></linearGradient><clipPath id="a"><path fill="#fff" d="M0 .432h16v16H0z"/></clipPath></defs></svg>