<svg xmlns="http://www.w3.org/2000/svg" width="16" height="17" fill="none"><g clip-path="url(#a)"><path fill="url(#b)" d="M14 7.76c.322 0 .59.229.653.532l.013.135-.008.343a6.667 6.667 0 0 1-10.3 5.24l-.886.889a.668.668 0 0 1-1.139-.472V11.76l.014-.134A.667.667 0 0 1 3 11.094h2.667a.667.667 0 0 1 .471 1.138l-.811.81a5.334 5.334 0 0 0 8-4.34l.007-.275.013-.135a.667.667 0 0 1 .654-.532Zm-6-6c1.343 0 2.594.398 3.641 1.082l.888-.887a.667.667 0 0 1 1.139.472l-.002 2.667-.013.134a.667.667 0 0 1-.654.532h-2.667a.667.667 0 0 1-.47-1.138l.81-.811a5.334 5.334 0 0 0-8 4.342l-.006.274-.013.135a.668.668 0 0 1-1.306 0l-.014-.135.01-.343A6.667 6.667 0 0 1 8 1.76Z"/></g><defs><linearGradient id="b" x1=".221" x2="8.47" y1="2.629" y2="16.857" gradientUnits="userSpaceOnUse"><stop stop-color="#fff"/><stop offset=".351" stop-color="#9573DE"/><stop offset="1" stop-color="#fff"/></linearGradient><clipPath id="a"><path fill="#fff" d="M0 .427h16v16H0z"/></clipPath></defs></svg>