<svg xmlns="http://www.w3.org/2000/svg" width="32" height="32" fill="none"><path fill="#fff" d="M31.681 9.6s-.312-2.207-1.275-3.176c-1.218-1.275-2.581-1.28-3.206-1.356-4.475-.325-11.194-.325-11.194-.325h-.012s-6.719 0-11.194.325c-.625.075-1.987.081-3.206 1.356C.63 7.394.325 9.6.325 9.6S0 12.193 0 14.781v2.425c0 2.587.319 5.18.319 5.18s.312 2.207 1.268 3.176c1.22 1.275 2.82 1.231 3.532 1.369 2.562.243 10.881.318 10.881.318s6.725-.012 11.2-.33c.625-.076 1.988-.082 3.206-1.357.963-.969 1.275-3.175 1.275-3.175S32 19.799 32 17.206V14.78c0-2.588-.319-5.182-.319-5.182ZM12.694 20.15v-8.994l8.643 4.512-8.643 4.481Z"/></svg>