<svg xmlns="http://www.w3.org/2000/svg" width="16" height="17" fill="none"><g clip-path="url(#a)"><path fill="url(#b)" d="M2.195 2.633a.667.667 0 0 1 .726-.144l11.333 4.666a.668.668 0 0 1 .098 1.183l-.09.046-4.175 1.79a.668.668 0 0 0-.29.239l-.06.112-1.79 4.176a.668.668 0 0 1-1.23-.009L2.05 3.359a.667.667 0 0 1 .144-.726Z"/></g><defs><linearGradient id="b" x1=".944" x2="8.779" y1="3.264" y2="16.781" gradientUnits="userSpaceOnUse"><stop stop-color="#fff"/><stop offset=".351" stop-color="#9573DE"/><stop offset="1" stop-color="#fff"/></linearGradient><clipPath id="a"><path fill="#fff" d="M0 .438h16v16H0z"/></clipPath></defs></svg>